<?xml version="1.0" encoding="UTF-8"?><svg id="Layer_2" xmlns="http://www.w3.org/2000/svg" viewBox="0 0 483.06 83.72"><defs><style>.cls-1{fill:#f8c713;}.cls-2{fill:#231f20;}</style></defs><g id="Layer_1-2"><path class="cls-2" d="m96.63,78.45l-1.66,3.76h-1.81l6.68-14.88h1.76l6.65,14.88h-1.85l-1.66-3.76h-8.12Zm4.04-9.18l-3.32,7.55h6.67l-3.36-7.55Z"/><path class="cls-2" d="m149.43,68.97v5.23h6.95v1.64h-6.95v6.38h-1.7v-14.88h9.46v1.64h-7.76Z"/><path class="cls-2" d="m182,77.47c-.32.02-.66.04-1,.04h-3.95v4.7h-1.7v-14.88h5.65c3.72,0,5.87,1.83,5.87,5,0,2.47-1.19,4.12-3.34,4.83l3.49,5.06h-1.93l-3.08-4.74Zm-1-1.59c2.7,0,4.23-1.19,4.23-3.51s-1.53-3.4-4.23-3.4h-3.95v6.91h3.95Z"/><path class="cls-2" d="m208.07,68.97v4.89h7.5v1.64h-7.5v5.1h8.67v1.62h-10.37v-14.88h10.1v1.64h-8.4Z"/><path class="cls-2" d="m237.56,68.97v4.89h7.5v1.64h-7.5v5.1h8.67v1.62h-10.37v-14.88h10.1v1.64h-8.4Z"/><path class="cls-2" d="m272.01,77.47c-.32.02-.66.04-1,.04h-3.95v4.7h-1.7v-14.88h5.65c3.72,0,5.87,1.83,5.87,5,0,2.47-1.19,4.12-3.34,4.83l3.49,5.06h-1.93l-3.08-4.74Zm-1-1.59c2.7,0,4.23-1.19,4.23-3.51s-1.53-3.4-4.23-3.4h-3.95v6.91h3.95Z"/><path class="cls-2" d="m319.56,68.97v5.23h6.95v1.64h-6.95v6.38h-1.7v-14.88h9.46v1.64h-7.76Z"/><path class="cls-2" d="m357.64,76.09c0,3.87-2.34,6.21-6.23,6.21s-6.27-2.34-6.27-6.21v-8.76h1.7v8.76c0,2.89,1.74,4.57,4.57,4.57s4.53-1.68,4.53-4.57v-8.76h1.7v8.76Z"/><path class="cls-2" d="m381.98,68.97v13.24h-1.7v-13.24h-4.85v-1.64h11.42v1.64h-4.87Z"/><path class="cls-2" d="m417.13,76.09c0,3.87-2.34,6.21-6.23,6.21s-6.27-2.34-6.27-6.21v-8.76h1.7v8.76c0,2.89,1.74,4.57,4.57,4.57s4.53-1.68,4.53-4.57v-8.76h1.7v8.76Z"/><path class="cls-2" d="m443.61,77.47c-.32.02-.66.04-1,.04h-3.95v4.7h-1.7v-14.88h5.66c3.72,0,5.87,1.83,5.87,5,0,2.47-1.19,4.12-3.34,4.83l3.49,5.06h-1.93l-3.08-4.74Zm-1-1.59c2.7,0,4.23-1.19,4.23-3.51s-1.53-3.4-4.23-3.4h-3.95v6.91h3.95Z"/><path class="cls-2" d="m469.68,68.97v4.89h7.5v1.64h-7.5v5.1h8.67v1.62h-10.37v-14.88h10.1v1.64h-8.4Z"/><path class="cls-2" d="m104.13,27.7c0-1.37-.06-2.91-.46-4.11-.4-1.14-1.03-1.94-2-1.94-1.6.06-2.11,1.71-2.11,4.17,0,1.43.63,2.91,1.54,4.51.91,1.6,2.11,3.25,3.31,5.02,1.43,2.11,2.85,4.28,3.94,6.39,1.09,2.11,1.83,4.28,1.83,6.56,0,2.8-.46,5.42-1.77,7.36s-3.43,3.2-6.79,3.2c-3.94,0-6.17-1.48-7.42-3.77-1.26-2.28-1.54-5.31-1.54-8.45l6.05-.57c0,1.77.06,3.54.51,4.85.4,1.37,1.09,2.28,2.4,2.28,1.83,0,2.51-1.94,2.51-4.62,0-1.37-.69-2.97-1.6-4.62-.51-.8-1.03-1.66-1.6-2.51-1.2-1.71-2.51-3.65-3.88-5.77-1.37-2.11-2.4-4.28-3.03-6.51-.34-1.08-.51-2.23-.51-3.37,0-2.28.51-4.74,1.83-6.62,1.31-1.83,3.31-3.14,6.22-3.2,3.71-.06,5.88,1.48,7.08,3.71,1.2,2.28,1.54,5.08,1.54,7.42l-6.05.57Z"/><path class="cls-2" d="m113.16,22.79v-6.34h17.81v6.34h-5.82v35.62h-6.16V22.79h-5.82Z"/><path class="cls-2" d="m151.58,16.45v33.34c-.06,1.71-.4,3.25-1.03,4.57-.51,1.14-1.31,2.23-2.45,3.08-1.14.91-2.68,1.43-4.74,1.43s-3.65-.51-4.8-1.43c-1.14-.86-1.88-1.94-2.4-3.08-.63-1.31-.97-2.85-1.03-4.57V16.45h6.16v33.34c0,1.2.29,2,.86,2.63.29.29.68.46,1.2.46,1.08,0,1.6-.69,1.83-1.54.17-.4.23-.91.23-1.54V16.45h6.17Z"/><path class="cls-2" d="m157.92,58.41V16.45h4.85c5.71,0,8.79,1.14,10.45,4.34,1.6,3.2,1.83,8.45,1.83,16.67s-.23,13.42-1.83,16.61c-1.66,3.2-4.74,4.34-10.45,4.34h-4.85Zm6.17-6.17c2.11,0,3.31-.23,3.94-2.28.29-.97.51-2.45.57-4.45.06-2,.06-4.68.06-8.11s0-6.11-.06-8.11c-.06-1.94-.29-3.43-.57-4.45-.63-2-1.83-2.23-3.94-2.23v29.63Z"/><path class="cls-2" d="m180.98,16.45h14.1v6.34h-7.93v11.02h5.71v6.74h-5.71v11.53h7.93v6.34h-14.1V16.45Z"/><path class="cls-2" d="m206.85,36.55l-.51-1.94h-.34v23.8h-5.65V16.45h5.48l5.99,21.86.51,1.94h.34v-23.8h5.65v41.96h-5.48l-5.99-21.86Z"/><path class="cls-2" d="m222.55,22.79v-6.34h17.81v6.34h-5.82v35.62h-6.16V22.79h-5.82Z"/><path class="cls-2" d="m254.8,27.7c0-1.37-.06-2.91-.46-4.11-.4-1.14-1.03-1.94-2-1.94-1.6.06-2.11,1.71-2.11,4.17,0,1.43.63,2.91,1.54,4.51.91,1.6,2.11,3.25,3.31,5.02,1.43,2.11,2.85,4.28,3.94,6.39,1.09,2.11,1.83,4.28,1.83,6.56,0,2.8-.46,5.42-1.77,7.36s-3.43,3.2-6.79,3.2c-3.94,0-6.17-1.48-7.42-3.77-1.26-2.28-1.54-5.31-1.54-8.45l6.05-.57c0,1.77.06,3.54.51,4.85.4,1.37,1.09,2.28,2.4,2.28,1.83,0,2.51-1.94,2.51-4.62,0-1.37-.69-2.97-1.6-4.62-.51-.8-1.03-1.66-1.6-2.51-1.2-1.71-2.51-3.65-3.88-5.77-1.37-2.11-2.4-4.28-3.03-6.51-.34-1.08-.51-2.23-.51-3.37,0-2.28.51-4.74,1.83-6.62,1.31-1.83,3.31-3.14,6.22-3.2,3.71-.06,5.88,1.48,7.08,3.71,1.2,2.28,1.54,5.08,1.54,7.42l-6.05.57Z"/><path class="cls-2" d="m291.29,22.79h-8.5v11.02h5.71v6.34h-5.71v18.27h-6.17V16.45h14.67v6.34Z"/><path class="cls-2" d="m311.67,49.79c-.06,1.71-.4,3.25-1.03,4.57-.51,1.14-1.31,2.23-2.45,3.08-1.14.91-2.68,1.43-4.74,1.43s-3.65-.51-4.79-1.43c-1.14-.86-1.88-1.94-2.4-3.08-.63-1.31-.97-2.85-1.03-4.57v-24.72c.06-1.66.4-3.2,1.03-4.51.51-1.14,1.26-2.28,2.4-3.14,1.14-.86,2.74-1.43,4.79-1.43s3.6.57,4.74,1.43c1.14.86,1.94,2,2.45,3.14.63,1.31.97,2.85,1.03,4.51v24.72Zm-6.17-24.72c0-1.14-.23-1.94-.8-2.63-.29-.29-.74-.46-1.25-.46-1.09,0-1.6.8-1.83,1.54-.17.46-.23.97-.23,1.54v24.72c0,1.2.29,2,.86,2.63.29.29.69.46,1.2.46,1.08,0,1.6-.69,1.83-1.54.17-.4.23-.91.23-1.54v-24.72Z"/><path class="cls-2" d="m328.68,58.41l-3.2-17.7h-1.66v17.7h-6.16V16.45h6.16c7.36,0,10.51,4.17,10.51,12.1,0,4.17-1.09,7.93-3.43,9.53l3.94,20.32h-6.17Zm-4.85-23.4c.86,0,2-.11,2.91-.91.91-.8,1.65-2.34,1.65-5.31s-.74-4.57-1.65-5.37c-.91-.8-2.06-.86-2.91-.86v12.44Z"/><path class="cls-2" d="m350.72,16.45h6.17v36.25h8.16v5.71h-14.33V16.45Z"/><path class="cls-2" d="m369.39,16.45h6.17v41.96h-6.17V16.45Z"/><path class="cls-2" d="m381.95,58.41V16.45h5.42c3.65,0,6.51.69,8.39,2.45s2.86,4.51,2.86,8.68c0,2-.17,3.48-.8,4.85-.63,1.37-1.6,2.51-3.03,3.83,1.54.86,2.68,2.45,3.6,5.14.46,1.31.68,3.03.68,5.14,0,3.14-.57,5.94-2,8.11-1.43,2.17-3.88,3.6-7.53,3.77h-7.59Zm6.16-24.66c.51,0,1.71.06,2.74-.63,1.03-.69,1.83-2.05,1.83-4.97s-.8-4.28-1.83-4.97c-1.03-.69-2.23-.63-2.74-.63v11.19Zm0,18.55c.51,0,1.71.11,2.74-.63,1.03-.74,1.83-2.4,1.83-5.82s-.8-5.08-1.83-5.82c-1.03-.74-2.23-.63-2.74-.63v12.9Z"/><path class="cls-2" d="m404.56,16.45h14.1v6.34h-7.93v11.02h5.71v6.74h-5.71v11.53h7.93v6.34h-14.1V16.45Z"/><path class="cls-2" d="m434.94,58.41l-3.2-17.7h-1.66v17.7h-6.17V16.45h6.17c7.36,0,10.5,4.17,10.5,12.1,0,4.17-1.09,7.93-3.42,9.53l3.94,20.32h-6.17Zm-4.85-23.4c.86,0,2-.11,2.91-.91.91-.8,1.66-2.34,1.66-5.31s-.74-4.57-1.66-5.37c-.91-.8-2.05-.86-2.91-.86v12.44Z"/><path class="cls-2" d="m444.19,22.79v-6.34h17.81v6.34h-5.82v35.62h-6.17V22.79h-5.82Z"/><path class="cls-2" d="m473.47,29.87l.17.4h.11l.17-.4,3.08-13.42h6.05l-6.28,24.09v17.87h-6.17v-17.87l-6.28-24.09h6.05l3.08,13.42Z"/><polyline class="cls-2" points="33.59 79.47 30.8 72.1 49.79 72.1 47.39 79.03"/><path class="cls-1" d="m30.34,80.36c-11.46-6.08-18.86-20.87-18.86-37.7S18.82,11.18,30.19,5.05l.58,1.08c-10.8,5.83-18.06,20.51-18.06,36.53s7.32,30.83,18.21,36.61l-.58,1.09Z"/><path class="cls-1" d="m51.25,80.55l-.56-1.1c11.22-5.63,18.73-20.44,18.68-36.85-.04-13.58-5.2-26.37-13.47-33.36l-.55-.48c-.29-.26-.62-.54-.9-.78l.79-.95c.29.24.63.54.93.8l.54.46c8.54,7.22,13.86,20.36,13.9,34.3.05,16.86-7.73,32.11-19.36,37.95Z"/><path class="cls-1" d="m69.67,67.23c-4.49-2.7-10.39-4.7-17.05-5.78l.2-1.22c6.81,1.11,12.86,3.16,17.48,5.94l-.64,1.06Z"/><path class="cls-1" d="m12.13,67.4l-.65-1.05c3.8-2.34,8.7-4.22,14.17-5.43l.26,1.2c-5.34,1.18-10.11,3.01-13.79,5.28Z"/><path class="cls-1" d="m41.04,26.01c-11.32,0-21.99-2.51-29.27-6.87l.64-1.06c7.09,4.26,17.53,6.7,28.63,6.7s21.82-2.5,28.91-6.87l.65,1.05c-7.29,4.48-18.06,7.05-29.56,7.05Z"/><rect class="cls-1" x="3.39" y="42.04" width="75.31" height="1.23"/><path class="cls-1" d="m35.36,6.95C18.19,9.74,5.06,24.61,5.04,42.57c-.03,19.97,16.14,36.18,36.1,36.21,19.97.03,36.18-16.14,36.21-36.1.02-15.75-9.51-28.99-23.51-33.96,0,0-1.5-4.02-4.68-6.35,17.38,2.93,32.95,19.58,32.92,40.36-.03,22.67-18.44,41.01-41.1,40.98C18.32,83.69-.03,65.29,0,42.62.03,21.94,15.36,4.86,35.26,2.06c0,0,.68,2.05.1,4.89Z"/><path class="cls-2" d="m58.35,31.14c.08,1.01.25,2.02.25,3.07,0,10.15-8.23,18.37-18.37,18.37s-18.37-8.23-18.37-18.37c0-3.81,1.16-7.34,3.14-10.27,0,0,2.91-4.69,5.11-6.83,0,0,1.8-1.95,4.2-6.6,0,0,2.18,5.03,1.05,11.18,0,0,6.45-4.05,4.88-21.68,0,0,19.05,8.55,11.55,33.15,0,0,4.5-1.05,4.95-8.85,0,0,1.36,3.77,1.62,6.83Z"/><path class="cls-2" d="m29.78,62.1c-1.47,0-2.66-1.21-2.66-2.71s1.19-2.71,2.66-2.71h26.12c.28-1.14.63-1.95.63-1.95h-29.46c-1.62,0-2.93,2.07-2.93,4.65s1.31,4.65,2.93,4.65h29.46s-.33-.82-.6-1.95h-26.14Z"/><path class="cls-2" d="m53.93,63.38c-1.42-1.29-2.11-2.7-2.06-4.17.09-2.3,2.03-3.83,2.11-3.9l1.05,1.34s-1.4,1.13-1.46,2.63c-.03.94.47,1.9,1.5,2.84l-1.15,1.26Z"/><path class="cls-2" d="m31.99,68.66c-1.16,0-2.1-.96-2.1-2.14s.94-2.14,2.1-2.14h20.65c.22-.9.5-1.54.5-1.54h-23.3c-1.28,0-2.32,1.63-2.32,3.68s1.04,3.68,2.32,3.68h23.3s-.26-.65-.48-1.54h-20.67Z"/><path class="cls-2" d="m51.09,69.67c-1.13-1.02-1.67-2.13-1.63-3.3.07-1.82,1.6-3.03,1.67-3.08l.83,1.06s-1.11.89-1.15,2.08c-.02.75.37,1.5,1.19,2.24l-.91,1Z"/></g></svg>